<?xml version="1.0" encoding="UTF-8"?>
<svg  viewBox="0 0 267.65 218.77" xmlns="http://www.w3.org/2000/svg" >
 <g transform="matrix(.1 0 0 -.1 -16 254.77)" fill="white">
  <path d="m964 2530c-62-25-122-75-163-137-26-39-37-47-68-50-59-6-151-31-178-49-31-20-32-46-5-116 11-29 20-53 20-54s-28-4-61-8c-89-9-140-26-151-51-7-17-3-47 16-119 15-53 29-102 32-109 3-9-17-17-63-27-38-8-68-20-68-26 0-7 34-34 75-62 125-84 237-205 370-402 163-240 268-369 444-546 115-114 177-168 260-222 60-40 114-72 119-72 6 0 25-11 43-25s43-25 56-25h23v575l26 56c33 69 88 124 159 158 49 23 67 26 165 26 108-1 112-2 250-54 132-50 144-53 211-49 113 7 198 71 236 174 8 23 17 33 31 31 11-1 28 10 41 26 30 40 29 166-2 259l-22 66 34 51c46 67 53 103 29 144-25 43-116 97-164 97-35 0-40-4-78-65l-41-65-48 6c-46 6-65 16-165 89-54 38-72 37-134-11-19-14-34-20-38-14-15 24-89 52-128 48-33-3-44 1-68 24-15 15-35 28-43 28-20 0-20 14 0 30 30 26 35 48 20 85-18 43-101 132-176 190-103 79-147 91-194 54l-27-21-64 26c-36 14-86 31-112 37-29 6-60 22-78 39-74 71-222 99-321 60zm210-40c43-17 88-52 215-167 89-80 161-150 161-154 0-26-40 2-137 94-111 105-206 187-217 187-3 0-6-6-6-14 0-17-23-27-40-16-8 5-10 17-6 33 7 30-11 37-92 37-73 0-110-18-164-81-60-69-44-76 20-9 36 37 58 52 85 57 39 6 48-5 22-27-8-7-15-19-15-28 0-23 30-52 53-52 24 0 57 27 57 47 0 15 16 17 25 3 4-6 24-10 45-8 42 2 49-2 130-79 132-124 160-149 188-165 29-17 31-17 53 1 19 16 22 23 13 38-6 10-23 39-37 64l-27 46 56-29c64-32 103-38 69-11-27 21-179 93-198 93-8 0-25 9-38 20l-24 19 22 1c31 0 139-47 207-92 49-32 57-35 53-18s-2 18 14 9c11-5 41-31 67-57 27-26 65-62 86-81 25-23 36-40 33-53-5-17 3-22 31-19 21 3-18-45-46-58-31-15-34-14-27 8 9 28-11 70-40 83-33 15-43 3-19-23 12-14 15-23 8-26-6-2-20-11-30-19-18-14-17-15 14-10 39 7 42-10 12-69-11-22-20-51-20-65v-25l19 30c24 40 49 61 95 80 42 18 65 14 90-14 19-21 3-42-17-22-30 30-120-3-155-57-15-23-15-23 11-11 15 7 27 15 27 19 0 6 44 30 56 30 3 0 0-10-6-22l-11-23 17 23c9 12 25 22 35 22 18 0 18-1-1-37-11-21-20-46-20-55 0-25-17-23-25 3-4 11-9 18-11 16-6-6 17-57 25-57 4 0 13 10 21 21 36 53 65 81 101 99 49 25 85 25 127 0 26-16 32-26 32-55 0-31 23-95 34-95 3 0 12-3 20-6 14-5 15-2 6 21-5 14-10 44-10 65 0 30 6 43 31 64 17 14 40 26 51 26 13 0 52-31 100-80 46-47 90-82 106-85 15-4 46-11 69-17 23-5 47-8 55-6 21 7-33 37-86 47-27 5-55 16-64 25-14 14-12 15 24 10 108-16 150-39 140-78-3-12-2-27 3-34 6-10 12-5 21 17 6 17 19 36 28 43 14 11 13 9-1-12-27-39-20-47 13-15 23 22 30 25 30 12 0-23 17-21 30 3 16 29-4 60-37 60-16 0-39-11-55-27l-28-27v23c0 13 9 39 21 57 17 28 27 34 55 34 35 0 46 13 18 24-41 16-64 6-92-39-26-44-42-56-42-33 0 6 14 33 32 61 30 47 33 49 67 43 40-6 75-29 104-68 19-25 19-26-1-69-10-24-31-57-46-72-24-26-25-30-12-55 22-43 46-154 46-209 0-95-54-110-224-61-38 11-117 42-175 69-59 26-147 59-196 72l-90 24-8 39c-13 64-59 149-83 152-17 2-25-7-42-45-11-26-23-60-27-75l-7-26-126-4c-118-4-136-8-252-48-115-40-133-43-230-44-81-1-116 3-155 18l-50 20 29 11c23 10 25 13 12 18-20 8-76-13-94-36-7-9-12-28-10-44l3-28 30 54 2-42c2-56 29-134 60-176 104-137 386-74 630 140 62 55 119 88 170 99 34 8 89-2 215-40l76-22 12-76c22-138 45-153 109-72 21 27 41 55 43 61 3 9 27 3 79-18 41-17 97-34 124-38 87-12 87-12 70-46-70-135-187-160-385-83-133 51-185 64-267 64-132 0-232-46-340-157-66-68-106-138-101-175 2-18 10-8 36 45 33 66 53 87 33 34-6-15-11-43-13-63-3-54-37-67-178-72-81-3-112-1-105 7 6 6 35 14 65 19 53 8 51 8-53 14-60 3-114 11-120 17s-19 11-30 11c-48 0-213 107-241 157-9 17-9 17 15 0 13-10 49-30 79-45 52-25 63-27 190-27 149 0 210 12 322 64 36 17 71 31 77 31 5 0 13 5 17 12 11 18-78 2-92-16-24-33-159-59-314-60-129-1-150 1-192 21-109 50-147 98-158 198-7 65-10 62-31-29-8-33-19-61-24-63-20-6-172 288-159 308 3 5 29 21 57 35 94 48 133 84 90 84-14 0-15-2-5-9 9-5-13-20-67-44-44-21-85-37-90-37-14 0-71 183-60 194 5 5 39 17 76 27 37 9 76 21 87 25 14 5 17 3 14-7-3-8-35-25-71-39-37-13-67-28-67-32 0-14 47-8 93 11 55 24 74 52 51 75-18 19-28 20-52 6-27-15-130-37-141-30-6 3-15 29-21 58-7 29-14 52-16 52-3 0-3-28-2-62l3-62-69-13c-38-7-71-11-73-9-7 7 30 75 39 70 4-3 5 2 2 11-4 9-3 15 2 13 17-4 54 13 49 23-4 5-15 4-28-3-12-6-23-9-25-7s-9-7-17-20c-12-23-15-16-40 93-19 77-25 120-18 127 13 13 132 31 177 27l37-3-61-99c-33-54-53-93-45-86s51 71 96 143c211 338 281 427 362 462 48 21 147 19 211-5zm-96-84c4-21-14-37-35-29-14 5-18 35-6 47s38 1 41-18zm608-58c27-18 86-70 132-115 69-69 83-87 80-110-2-14-9-28-17-31-9-3-11 2-6 17 5 17-9 36-77 102-97 95-132 119-173 119-16 0-38 7-48 14-18 14-18 15 0 25 30 18 57 12 109-21zm-934-41c-6-7-26-14-44-15-45-3-122-43-126-65-3-14 10-10 72 21 42 22 76 37 76 35 0-8-105-183-110-183-3 0-17 33-32 72l-27 72 21 23c12 13 46 28 82 37 81 19 102 20 88 3zm725-12c8-9 13-18 11-21-3-2-13 5-23 16-21 23-11 27 12 5zm-1047-500c0-17-35-55-50-55-26 0-34 30-13 46 18 13 63 19 63 9zm171-83c0-15 8-57 18-95 14-54 15-70 5-78s-29 5-76 51c-54 52-58 72-8 36 8-6 6 0-5 13-11 14-14 21-8 17 19-11 53 12 53 36 0 21 0 21-14 2-11-14-26-19-58-19-83 1-101 25-28 40 33 7 34 6 15-8-18-14-16-14 25-4 36 10 40 13 20 16-23 3-23 4 10 16 42 15 50 12 51-23zm1431-47c15-37 28-71 28-75 0-6-103 17-117 25-9 5 41 125 50 122 6-2 24-34 39-72zm-162-82c0-5-20-18-45-30l-46-22-25 22-26 22 59 6c32 3 64 6 71 7 6 1 12-1 12-5zm-152-104c-23-21-47-38-51-39-8 0-5 40 9 113l6 27 40-31 40-32zm-72 54c-3-21-6-47-6-58 0-15-5-12-21 15-12 19-25 37-30 38-17 7-9 20 19 30 42 16 45 14 38-25zm-506-48c0-18 6-53 14-79 12-39 12-45 1-36-23 19-53 92-61 145l-7 50 27-24c17-17 26-35 26-56zm-455 8c8-42-4-42-32-1-17 24-20 35-11 45 15 19 34 0 43-44zm845 30c0-5-8-38-17-75l-17-67-33 61c-18 34-32 62-30 63 2 3 78 22 90 24 4 1 7-2 7-6zm70-50c17-26 30-50 30-53 0-7-112-72-116-67-2 2 5 30 16 62s20 69 20 82c0 36 18 28 50-24zm-352 12c2-2-8-20-23-40-14-21-25-46-25-56 0-36-17-19-24 24-3 23-9 52-12 65-6 22-5 22 37 16 24-4 45-8 47-9zm124-22c-11-21-25-56-32-78-20-64-26-61-42 19l-15 74 46 10c25 5 49 10 54 11 4 0-1-16-11-36zm81-61c15-35 27-65 27-67 0-7-133-46-138-40-6 6 46 155 61 173 13 17 18 10 50-66zm870 54c26-10 47-21 47-25-1-11-70-101-78-101-5 0-14 29-20 64-14 74-15 89-4 84 4-1 28-11 55-22zm-1050-57c4-28 13-64 21-80 13-25 13-29 0-29-20 0-96 40-92 48 2 4 14 31 27 60 13 28 27 52 31 52s10-23 13-51zm-363-190c0-6 7-17 16-26 16-17 16-64-1-69-5-2-23 15-38 37-23 32-27 43-17 54 14 17 40 20 40 4zm64-124c24-37 118-104 157-111 19-4 59-19 89-34 131-66 249-84 346-55 27 8 50 15 52 15 1 0 2-58 2-129v-130l-56-7c-30-3-77-4-102 0-36 4-43 3-29-5 36-21 77-27 131-20l54 7 4-65c3-36 4-68 2-70-1-1-18 8-36 22-18 13-65 43-104 65-74 43-271 210-389 331l-70 72 45-24c44-24 100-42 100-32 0 2-24 17-52 31-66 33-137 92-161 133-21 37-7 42 17 6z"/>
  <path d="m1010 2255c-57-18-118-69-149-126l-24-44 51 56c52 57 138 110 175 108 14-1 16-3 7-6-25-7-80-90-80-120 0-41 32-87 74-107 43-20 47-31 9-22-21 5-24 4-13-4 21-14 81-12 185 6 84 14 91 14 100-1 43-73 98-105 178-105 32 0 59 5 65 13 8 9-3 12-48 12-50 1-66 6-103 33-24 17-47 29-50 26s-13 6-22 20c-14 21-25 26-56 26h-40l16 30c8 16 15 40 15 55 0 14 6 25 13 25 15-1 57-35 57-47 0-4 16-23 35-42 20-19 34-40 31-48-3-7 8-20 26-29 41-21 111-14 142 15 29 27 39 27 31-1l-6-23 20 24c36 40 23 89-30 117-41 21-47 11-15-26 14-17 26-35 26-38 0-10-81-42-104-42-30 0-75 36-136 107-64 75-151 136-223 158-61 18-97 18-157 0zm218-74c26-18 32-29 32-57 0-60-41-113-88-114-49 0-122 52-136 97-8 25 15 77 41 93 29 17 116 6 151-19z"/>
  <path d="m1157 2183c-3-5 0-20 7-34 13-26 7-69-15-95-10-12-10-17 0-27 19-19 61 35 61 78 0 35-41 97-53 78z"/>
  <path d="m950 2159c-25-48-23-93 7-133 27-38 32-31 15 18-14 38-14 51-3 96 17 65 8 74-19 19z"/>
  <path d="m1705 2140c-3-5-24-10-46-10-44 0-52-16-13-26 27-7 75 14 82 35 5 14-15 14-23 1z"/>
  <path d="m1415 2120c-3-6 1-10 9-10 9 0 16-9 16-21 0-11 5-17 10-14 16 10 12 29-10 42-12 8-21 9-25 3z"/>
  <path d="m1700 2087c0-8 7-17 15-21 8-3 15-2 15 3s-7 14-15 21c-12 10-15 10-15-3z"/>
  <path d="m1546 2082c-6-11 30-62 45-62 14 0 10 13-15 44-13 15-26 24-30 18z"/>
  <path d="m855 2015c3-27 10-54 16-60 8-7 9-3 3 15-4 14-11 41-15 60-7 28-7 26-4-15z"/>
  <path d="m697 1973c-19-19 1-73 27-73 5 0 2 6-9 13-12 10-16 22-13 40 6 29 5 31-5 20z"/>
  <path d="m970 1943c0-12 38-48 45-41 3 2-6 15-20 28s-25 19-25 13z"/>
  <path d="m602 1928c-16-16-15-43 2-57 18-15 66 5 66 29 0 20-19 40-40 40-9 0-21-5-28-12zm58-16c0-12-49-37-56-29-11 10 17 37 37 37 11 0 19-4 19-8z"/>
  <path d="m837 1903c-13-12-7-33 8-33 8 0 15 9 15 20 0 20-11 26-23 13z"/>
  <path d="m1995 1898c-32-17-85-71-85-85 0-8 21 2 52 26 53 40 67 40 68-1 0-9 5-20 11-23 7-5 8 5 3 29-3 20-2 36 2 35 5-1 25-1 44 0 33 2 34 2 16 16-23 18-82 19-111 3z"/>
  <path d="m2235 1884c-14-15-25-39-25-53 0-25 1-25 31 13 25 29 37 37 55 33 26-5 30 3 12 21-19 19-47 14-73-14z"/>
  <path d="m1610 1851c0-5-6-11-12-14-7-2-2-2 12 0 34 6 50 23 22 23-12 0-22-4-22-9z"/>
  <path d="m515 1820c-32-33-17-42 15-10 17 17 27 40 17 40-2 0-16-13-32-30z"/>
  <path d="m2267 1843c-14-14-6-71 14-97 20-25 47-38 33-15-4 8 0 8 15 0 28-15 27-7-5 34-14 19-24 42-22 51 3 14 8 13 36-10 36-31 42-22 11 18-20 25-66 36-82 19z"/>
  <path d="m857 1773c-10-10-8-41 3-48 6-3 7 1 4 10-4 8-1 22 6 30 12 15 0 22-13 8z"/>
  <path d="m1071 1748c-24-11-52-35-62-52-22-36-25-114-6-140 11-15 13-8 12 44 0 59 1 63 42 101 61 57 92 54 156-13l50-51-7 33c-8 44-40 78-85 90-48 13-50 13-100-12z"/>
  <path d="m2230 1715c0-18 35-37 58-33 12 2 6 10-21 25-28 17-37 19-37 8z"/>
  <path d="m1062 1695c-27-22-53-73-31-59 5 3 9 11 9 18 0 38 94 71 127 45 16-13 17-12 4 4-20 25-74 22-109-8z"/>
  <path d="m1422 1709c2-6 8-10 13-10s11 4 13 10-4 11-13 11-15-5-13-11z"/>
  <path d="m1572 1685c-59-17-142-69-142-89 0-9 27 0 81 28 76 38 86 41 165 41 72 0 81 2 69 14-20 20-111 23-173 6z"/>
  <path d="m1078 1663c-8-10-18-26-21-35-9-25 20-23 33 2 6 11 19 20 30 20 25 0 50 10 50 21 0 17-76 10-92-8z"/>
  <path d="m1330 1665c0-8 5-15 10-15 6 0 10 7 10 15s-4 15-10 15c-5 0-10-7-10-15z"/>
  <path d="m2700 1572c0-98-5-107-70-135-29-12-32-16-17-22 24-10 64 2 87 25 13 13 20 15 20 7 0-7-5-18-12-25s-8-12-2-12c26 0 34 50 24 143-5 50-10 95-10 100 0 4-4 7-10 7s-10-36-10-88z"/>
  <path d="m1661 1640c-58-9-198-57-207-71-8-13 7-11 72 12 32 11 94 29 138 39 116 28 115 37-3 20z"/>
  <path d="m802 1567c-26-27-27-48-7-86 33-65 83-40 86 42 3 69-36 90-79 44zm50-39c-5-62-8-67-26-47-27 27-28 56-5 78 13 12 26 21 29 21 4 0 5-24 2-52z"/>
  <path d="m2090 1450c0-5 10-15 23-21 22-12 22-12 3 10-21 23-26 26-26 11z"/>
  <path d="m1010 1427c0-14 7-32 15-40s11-18 7-22c-4-5-2-5 5-1 9 5 8 16-4 44-20 48-23 51-23 19z"/>
  <path d="m939 1339c-20-38-2-103 41-152 40-45 88-73 112-64 7 2-3 11-22 19-71 30-136 132-116 183 10 26 26 16 20-12-10-51 61-137 134-164 23-8 19-2-23 38-51 49-85 99-85 125 0 15-30 48-43 48-3 0-11-10-18-21z"/>
  <path d="m1447 1044c-14-14-6-43 18-71l25-28-6 30c-9 41-28 77-37 69z"/>
  <path d="m1215 890c3-5 13-10 21-10s12 5 9 10c-3 6-13 10-21 10s-12-4-9-10z"/>
  <path d="m1518 843-58-4v-45c0-53 31-133 37-97 2 12 0 38-6 58-13 49-7 61 37 63 20 2 44 9 52 17s10 14 5 13c-6-1-36-3-67-5z"/>
  <path d="m1400 660c8-5 24-10 35-10s27 5 35 10c11 7 1 10-35 10s-46-3-35-10z"/>
  <path d="m782 2474c-35-36-61-68-57-72s16 7 28 23c11 17 40 49 64 73 24 23 40 42 36 42s-36-30-71-66z"/>
  <path d="m471 2304c-32-40-27-134 6-134 10 0 13 6 8 18-19 47-18 84 4 113 27 36 10 39-18 3z"/>
  <path d="m290 2093c-17-22-21-37-17-73 7-68 37-164 49-152 6 6 1 41-14 96-22 84-22 88-5 118 23 40 15 47-13 11z"/>
  <path d="m2531 1978c-27-37-45-78-23-52 37 42 72 94 64 94-6 0-24-19-41-42z"/>
  <path d="m208 1813c-8-10-22-37-31-60l-17-43h26c36 0 130-55 137-80 7-28 29-25 25 3-4 29-90 87-129 87-34 0-35 4-9 64 21 50 21 55-2 29z"/>
  <path d="m373 1624c-6-3 28-44 76-93 56-56 115-130 166-206 275-420 584-748 831-881 79-43 106-63 98-75-3-5 31-9 75-9 45 0 81 4 81 9s-29 6-65 3c-54-4-65-2-65 11 0 9-31 32-72 55-107 59-203 129-298 218-215 202-355 370-540 649-95 142-262 328-287 319z"/>
  <path d="m1945 1191c-23-5-8-9 60-13 76-4 109-13 210-52 127-50 228-67 293-50 25 7 15 9-50 10-65 0-100 7-158 28-214 80-285 95-355 77z"/>
 </g>
</svg>
